<svg width="32" height="32" viewBox="0 0 32 32" fill="none" xmlns="http://www.w3.org/2000/svg">
<g clip-path="url(#clip0_6_59)">
<path d="M25.3333 12H12C10.5273 12 9.33334 13.1939 9.33334 14.6667V22.6667C9.33334 24.1394 10.5273 25.3333 12 25.3333H25.3333C26.8061 25.3333 28 24.1394 28 22.6667V14.6667C28 13.1939 26.8061 12 25.3333 12Z" stroke="#281A51" stroke-width="2" stroke-linecap="round" stroke-linejoin="round"/>
<path d="M18.6667 21.3333C20.1394 21.3333 21.3333 20.1394 21.3333 18.6667C21.3333 17.1939 20.1394 16 18.6667 16C17.1939 16 16 17.1939 16 18.6667C16 20.1394 17.1939 21.3333 18.6667 21.3333Z" stroke="#281A51" stroke-width="2" stroke-linecap="round" stroke-linejoin="round"/>
<path d="M22.6667 12V9.33332C22.6667 8.62608 22.3857 7.9478 21.8856 7.4477C21.3855 6.94761 20.7072 6.66666 20 6.66666H6.66667C5.95942 6.66666 5.28115 6.94761 4.78105 7.4477C4.28095 7.9478 4 8.62608 4 9.33332V17.3333C4 18.0406 4.28095 18.7188 4.78105 19.2189C5.28115 19.719 5.95942 20 6.66667 20H9.33333" stroke="#281A51" stroke-width="2" stroke-linecap="round" stroke-linejoin="round"/>
</g>
<defs>
<clipPath id="clip0_6_59">
<rect width="32" height="32" fill="white"/>
</clipPath>
</defs>
</svg>
