<svg width="32" height="32" viewBox="0 0 32 32" fill="none" xmlns="http://www.w3.org/2000/svg">
<g clip-path="url(#clip0_6_18)">
<path d="M5.33333 14.6667C6.04058 14.6667 6.71885 14.9476 7.21895 15.4477C7.71905 15.9478 8 16.6261 8 17.3333V18.6667H24V17.3333C24 16.6261 24.281 15.9478 24.781 15.4477C25.2811 14.9476 25.9594 14.6667 26.6667 14.6667C27.3739 14.6667 28.0522 14.9476 28.5523 15.4477C29.0524 15.9478 29.3333 16.6261 29.3333 17.3333V24C29.3333 24.3536 29.1929 24.6928 28.9428 24.9428C28.6928 25.1929 28.3536 25.3333 28 25.3333H4C3.64638 25.3333 3.30724 25.1929 3.05719 24.9428C2.80714 24.6928 2.66667 24.3536 2.66667 24V17.3333C2.66667 16.6261 2.94762 15.9478 3.44771 15.4477C3.94781 14.9476 4.62609 14.6667 5.33333 14.6667V14.6667Z" stroke="#281A51" stroke-width="2" stroke-linecap="round" stroke-linejoin="round"/>
<path d="M5.33333 14.6667V10.6667C5.33333 9.60581 5.75476 8.58839 6.50491 7.83824C7.25505 7.0881 8.27247 6.66667 9.33333 6.66667H22.6667C23.7275 6.66667 24.7449 7.0881 25.4951 7.83824C26.2452 8.58839 26.6667 9.60581 26.6667 10.6667V14.6667" stroke="#281A51" stroke-width="2" stroke-linecap="round" stroke-linejoin="round"/>
<path d="M16 6.66667V18.6667" stroke="#281A51" stroke-width="2" stroke-linecap="round" stroke-linejoin="round"/>
</g>
<defs>
<clipPath id="clip0_6_18">
<rect width="32" height="32" fill="white"/>
</clipPath>
</defs>
</svg>
