<svg width="32" height="32" viewBox="0 0 32 32" fill="none" xmlns="http://www.w3.org/2000/svg">
<g clip-path="url(#clip0_6_39)">
<path d="M6.66667 25.3333C8.87581 25.3333 10.6667 23.5425 10.6667 21.3333C10.6667 19.1242 8.87581 17.3333 6.66667 17.3333C4.45753 17.3333 2.66667 19.1242 2.66667 21.3333C2.66667 23.5425 4.45753 25.3333 6.66667 25.3333Z" stroke="#281A51" stroke-width="2" stroke-linecap="round" stroke-linejoin="round"/>
<path d="M25.3333 25.3333C27.5425 25.3333 29.3333 23.5425 29.3333 21.3333C29.3333 19.1242 27.5425 17.3333 25.3333 17.3333C23.1242 17.3333 21.3333 19.1242 21.3333 21.3333C21.3333 23.5425 23.1242 25.3333 25.3333 25.3333Z" stroke="#281A51" stroke-width="2" stroke-linecap="round" stroke-linejoin="round"/>
<path d="M10 18.6667L15.3333 13.3333M10 18.6667H16.6667L22 13.3333H8L10 18.6667Z" stroke="#281A51" stroke-width="2" stroke-linecap="round" stroke-linejoin="round"/>
<path d="M17.3333 8H20L22 12L24.6667 17.3333" stroke="#281A51" stroke-width="2" stroke-linecap="round" stroke-linejoin="round"/>
</g>
<defs>
<clipPath id="clip0_6_39">
<rect width="32" height="32" fill="white"/>
</clipPath>
</defs>
</svg>
